<?xml version="1.0" encoding="UTF-8" standalone="no"?><!DOCTYPE svg PUBLIC "-//W3C//DTD SVG 1.1//EN" "http://www.w3.org/Graphics/SVG/1.1/DTD/svg11.dtd"><svg width="100%" height="100%" viewBox="0 0 6788 6192" version="1.1" xmlns="http://www.w3.org/2000/svg" xmlns:xlink="http://www.w3.org/1999/xlink" xml:space="preserve" xmlns:serif="http://www.serif.com/" style="fill-rule:evenodd;clip-rule:evenodd;stroke-linejoin:round;stroke-miterlimit:2;"><rect id="Prancheta4" x="0" y="0" width="6787.02" height="6191.13" style="fill:none;"/><path d="M4788.01,2148.16c0,-391.452 -153.048,-762.301 -432.657,-1038.97c-279.608,-276.665 -647.514,-429.714 -1041.91,-429.714c-391.452,2.944 -762.301,155.992 -1038.97,432.658c-55.922,55.921 -105.957,114.786 -150.106,176.594c-182.481,250.176 -279.609,550.388 -279.609,865.315c0,394.395 153.049,762.301 432.658,1041.91c61.808,58.864 158.935,58.864 217.8,-2.944c61.808,-58.865 61.808,-155.992 0,-217.8c-220.743,-217.8 -341.417,-509.182 -341.417,-821.166c0,-309.041 120.674,-603.366 338.474,-821.166c220.743,-220.743 512.125,-341.417 821.166,-344.36c311.984,0 603.365,120.673 824.109,341.417c220.743,217.8 341.417,509.182 341.417,821.166c-0,309.041 -120.674,600.422 -338.474,821.166c-61.808,61.808 -61.808,158.935 0,217.8c58.865,61.808 158.935,61.808 217.8,0c276.666,-276.665 429.714,-644.571 429.714,-1038.97l0,-2.943Z" style="fill:#fff;fill-rule:nonzero;"/><path d="M2622.39,1646.91c25.991,-35.496 54.673,-69.344 86.268,-101.104c331.556,-332.654 871.803,-333.588 1204.51,-2.198c161.162,160.448 250.177,374.195 250.617,601.679c0.439,227.375 -88.137,441.397 -248.31,602.614c-61.266,61.431 -160.777,61.596 -222.154,0.384c-61.432,-61.322 -61.102,-160.557 -0.494,-222.209c101.488,-101.489 157.041,-236.715 156.821,-380.184c-0.33,-143.579 -56.432,-278.366 -158.305,-379.69c-209.901,-209.241 -550.797,-208.582 -759.929,1.374c-101.544,101.543 -157.151,236.66 -156.766,380.184c0.22,143.579 56.376,278.476 158.03,379.69c61.541,61.267 61.377,160.393 0.439,222.154c-61.212,61.487 -160.777,61.761 -222.319,0.495c-160.887,-160.613 -249.848,-374.36 -250.342,-601.789c-0.33,-182.592 56.431,-356.502 161.931,-501.4" style="fill:#fff;fill-rule:nonzero;"/><path d="M5306.43,2828.46l-370.433,320.109l107.517,124.42l-237.914,210.532l-743.255,-54.167l-544.917,-630.585c48.701,-86.539 38.127,-195.946 -30.293,-275.122c-87.969,-101.799 -243.281,-115.767 -345.079,-27.798c-101.799,87.968 -110.496,243.664 -22.527,345.463c68.42,79.176 177.965,103.058 267.823,69.861l796.606,921.843l-526.343,459.776c-16.967,14.661 -29.046,34.978 -30.583,56.064l-21.374,329.649l-277.118,239.47l320.108,370.434l370.434,-320.109l-244.358,-282.774l18.301,-287.478l503.337,-434.957l195.486,226.219c14.662,16.967 37.806,26.602 58.892,28.139l679.999,49.557l234.583,271.463l-124.42,107.517l320.108,370.433l370.434,-320.108l-320.109,-370.434l-118.765,102.631l-256.575,-296.913c-14.662,-16.966 -34.979,-29.045 -58.892,-28.138l-677.171,-52.001l-381.198,-441.127l609.029,41.735c23.529,4.365 45.382,-4.641 62.349,-19.303l263.363,-232.524l102.63,118.765l370.434,-320.108l-320.109,-370.434Z" style="fill:#fff;fill-rule:nonzero;"/><path d="M3158.48,4682.47l-320.108,-370.434l-124.42,107.517l-210.532,-237.914l54.167,-743.255l630.585,-544.917c86.539,48.701 195.945,38.127 275.122,-30.293c101.798,-87.969 115.767,-243.281 27.798,-345.079c-87.969,-101.799 -243.664,-110.496 -345.463,-22.527c-79.177,68.42 -103.058,177.965 -69.862,267.823l-921.842,796.606l-459.776,-526.343c-14.662,-16.967 -34.978,-29.046 -56.064,-30.583l-329.649,-21.374l-239.47,-277.118l-370.434,320.108l320.109,370.434l282.773,-244.358l287.479,18.301l434.956,503.337l-226.219,195.486c-16.966,14.662 -26.602,37.806 -28.138,58.892l-49.557,679.999l-271.463,234.583l-107.517,-124.42l-370.434,320.108l320.109,370.434l370.433,-320.109l-102.63,-118.765l296.912,-256.575c16.967,-14.662 29.046,-34.979 28.139,-58.892l52.001,-677.171l441.126,-381.198l-41.734,609.029c-4.365,23.529 4.641,45.382 19.303,62.349l232.523,263.363l-118.764,102.63l320.108,370.434l370.433,-320.108Z" style="fill:#fff;fill-rule:nonzero;"/></svg>