<?xml version="1.0" encoding="UTF-8" standalone="no"?>
<!DOCTYPE svg PUBLIC "-//W3C//DTD SVG 1.1//EN" "http://www.w3.org/Graphics/SVG/1.1/DTD/svg11.dtd">
<svg width="100%" height="100%" viewBox="0 0 2333 1902" version="1.1" xmlns="http://www.w3.org/2000/svg" xmlns:xlink="http://www.w3.org/1999/xlink" xml:space="preserve" xmlns:serif="http://www.serif.com/" style="fill-rule:evenodd;clip-rule:evenodd;stroke-linejoin:round;stroke-miterlimit:2;">
    <g transform="matrix(1,0,0,1,0,-0.133034)">
        <g id="Prancheta2" transform="matrix(1,0,0,1,-70.2315,-93.7339)">
            <rect x="70.232" y="93.867" width="2332.47" height="1901.73" style="fill:none;"/>
            <g transform="matrix(1,0,0,1,-57.3842,36.0893)">
                <g transform="matrix(1.28638,0,0,1.28638,17.2882,-107.564)">
                    <g transform="matrix(-798.757,4.89098e-14,4.89098e-14,798.757,1378.82,507.762)">
                        <path d="M-0,0.059C0,-0.074 0.052,-0.2 0.147,-0.294C0.242,-0.388 0.367,-0.44 0.501,-0.44C0.634,-0.439 0.76,-0.387 0.854,-0.293C0.873,-0.274 0.89,-0.254 0.905,-0.233C0.967,-0.148 1,-0.046 1,0.061C1,0.195 0.948,0.32 0.853,0.415C0.832,0.435 0.799,0.435 0.779,0.414C0.758,0.394 0.758,0.361 0.779,0.34C0.854,0.266 0.895,0.167 0.895,0.061C0.895,-0.044 0.854,-0.144 0.78,-0.218C0.705,-0.293 0.606,-0.334 0.501,-0.335C0.395,-0.335 0.296,-0.294 0.221,-0.219C0.146,-0.145 0.105,-0.046 0.105,0.06C0.105,0.165 0.146,0.264 0.22,0.339C0.241,0.36 0.241,0.393 0.22,0.413C0.2,0.434 0.166,0.434 0.146,0.413C0.052,0.319 -0,0.194 -0,0.06L-0,0.059Z" style="fill:url(#_Linear1);fill-rule:nonzero;"/>
                    </g>
                    <g transform="matrix(9.13101e-16,14.9121,-14.9121,9.13101e-16,1165.5,418.857)">
                        <path d="M0,25.107C-0.646,24.634 -1.262,24.112 -1.84,23.537C-7.894,17.503 -7.911,7.671 -1.88,1.616C1.04,-1.317 4.93,-2.937 9.07,-2.945C13.208,-2.953 17.103,-1.341 20.037,1.574C21.155,2.689 21.158,4.5 20.044,5.617C18.928,6.735 17.122,6.729 16,5.626C14.153,3.779 11.692,2.768 9.081,2.772C6.468,2.778 4.015,3.799 2.171,5.653C-1.637,9.473 -1.625,15.677 2.196,19.483C4.044,21.331 6.503,22.343 9.115,22.336C11.728,22.332 14.183,21.31 16.025,19.46C17.14,18.34 18.944,18.343 20.068,19.452C21.187,20.566 21.192,22.378 20.077,23.498C17.154,26.426 13.264,28.045 9.125,28.054C5.802,28.06 2.637,27.027 0,25.107" style="fill:rgb(137,100,254);fill-rule:nonzero;"/>
                    </g>
                    <g transform="matrix(663.153,767.409,767.409,-663.153,1012.06,746.396)">
                        <path d="M0.322,0.383L0.322,0.252L0.366,0.252L0.367,0.167L0.226,0.026L0.003,0.026C-0.006,0.051 -0.03,0.068 -0.058,0.068C-0.094,0.068 -0.124,0.039 -0.124,0.003C-0.124,-0.033 -0.094,-0.062 -0.058,-0.062C-0.03,-0.062 -0.006,-0.044 0.003,-0.02L0.329,-0.02L0.33,-0.207C0.33,-0.213 0.332,-0.219 0.336,-0.223L0.399,-0.285L0.399,-0.383L0.53,-0.383L0.53,-0.252L0.43,-0.252L0.375,-0.198L0.375,-0.02L0.455,-0.02C0.461,-0.02 0.467,-0.017 0.471,-0.013L0.6,0.116L0.696,0.116L0.696,0.072L0.827,0.072L0.827,0.203L0.696,0.203L0.696,0.161L0.591,0.161C0.585,0.161 0.579,0.159 0.575,0.154L0.446,0.026L0.29,0.026L0.405,0.142C0.41,0.146 0.412,0.152 0.412,0.158L0.411,0.252L0.453,0.252L0.453,0.383L0.322,0.383Z" style="fill:url(#_Linear2);fill-rule:nonzero;"/>
                    </g>
                    <g transform="matrix(-767.409,663.153,663.153,767.409,929.707,735.212)">
                        <path d="M0.322,0.383L0.322,0.252L0.366,0.252L0.367,0.167L0.226,0.026L0.003,0.026C-0.006,0.051 -0.03,0.068 -0.058,0.068C-0.094,0.068 -0.124,0.039 -0.124,0.003C-0.124,-0.033 -0.094,-0.062 -0.058,-0.062C-0.03,-0.062 -0.006,-0.044 0.003,-0.02L0.329,-0.02L0.33,-0.207C0.33,-0.213 0.332,-0.219 0.336,-0.223L0.399,-0.285L0.399,-0.383L0.53,-0.383L0.53,-0.252L0.43,-0.252L0.375,-0.198L0.375,-0.02L0.455,-0.02C0.461,-0.02 0.467,-0.017 0.471,-0.013L0.6,0.116L0.696,0.116L0.696,0.072L0.827,0.072L0.827,0.203L0.696,0.203L0.696,0.161L0.591,0.161C0.585,0.161 0.579,0.159 0.575,0.154L0.446,0.026L0.29,0.026L0.405,0.142C0.41,0.146 0.412,0.152 0.412,0.158L0.411,0.252L0.453,0.252L0.453,0.383L0.322,0.383Z" style="fill:url(#_Linear3);fill-rule:nonzero;"/>
                    </g>
                </g>
                <g transform="matrix(5.80548,0,0,5.24642,-4720.34,-10110.8)">
                    <path d="M960.205,2254.23C960.205,2259.85 959.066,2264.1 956.787,2266.98C954.508,2269.86 951.237,2271.3 946.972,2271.3C942.708,2271.3 939.433,2269.86 937.146,2266.98C934.859,2264.1 933.716,2259.85 933.716,2254.23C933.716,2248.62 934.859,2244.4 937.146,2241.59C939.433,2238.77 942.708,2237.36 946.972,2237.36C951.237,2237.36 954.508,2238.77 956.787,2241.59C959.066,2244.4 960.205,2248.62 960.205,2254.23ZM952.905,2254.23C952.905,2246.76 950.927,2243.03 946.972,2243.03C943.001,2243.03 941.015,2246.76 941.015,2254.23C941.015,2257.98 941.516,2260.81 942.517,2262.74C943.518,2264.67 945.003,2265.64 946.972,2265.64C948.942,2265.64 950.423,2264.67 951.416,2262.74C952.409,2260.81 952.905,2257.98 952.905,2254.23Z" style="fill:rgb(14,0,118);fill-rule:nonzero;"/>
                    <path d="M971.24,2254.18C971.24,2257.85 971.81,2260.67 972.949,2262.66C974.088,2264.64 975.789,2265.64 978.052,2265.64C980.688,2265.64 982.641,2263.65 983.911,2259.68L990.576,2260.95C988.411,2267.85 984.212,2271.3 977.978,2271.3C973.405,2271.3 969.918,2269.85 967.517,2266.94C965.116,2264.04 963.916,2259.78 963.916,2254.18C963.916,2242.97 968.538,2237.36 977.783,2237.36C980.81,2237.36 983.345,2238.16 985.388,2239.76C987.431,2241.35 988.932,2243.72 989.892,2246.86L983.252,2248.47C982.78,2246.75 982.072,2245.41 981.128,2244.46C980.184,2243.5 979.101,2243.03 977.881,2243.03C973.454,2243.03 971.24,2246.75 971.24,2254.18Z" style="fill:rgb(14,0,118);fill-rule:nonzero;"/>
                    <path d="M1010.57,2243.44L1010.57,2270.81L1003.37,2270.81L1003.37,2243.44L993.457,2243.44L993.457,2237.88L1020.48,2237.88L1020.48,2243.44L1010.57,2243.44Z" style="fill:rgb(14,0,118);fill-rule:nonzero;"/>
                    <path d="M1036.6,2271.3C1032.59,2271.3 1029.68,2270.21 1027.86,2268.03C1026.03,2265.85 1025.12,2262.48 1025.12,2257.92L1025.12,2237.88L1032.32,2237.88L1032.32,2257.85C1032.32,2260.7 1032.65,2262.71 1033.31,2263.89C1033.97,2265.07 1035.13,2265.66 1036.79,2265.66C1038.48,2265.66 1039.71,2265.03 1040.48,2263.78C1041.24,2262.53 1041.63,2260.47 1041.63,2257.6L1041.63,2237.88L1048.83,2237.88L1048.83,2257.55C1048.83,2262.21 1047.82,2265.66 1045.81,2267.92C1043.8,2270.17 1040.73,2271.3 1036.6,2271.3Z" style="fill:rgb(14,0,118);fill-rule:nonzero;"/>
                    <path d="M1080.42,2261.26C1080.42,2264.39 1079.23,2266.84 1076.84,2268.62C1074.46,2270.41 1071.14,2271.3 1066.89,2271.3C1063.07,2271.3 1059.95,2270.49 1057.54,2268.88C1055.13,2267.27 1053.59,2264.93 1052.9,2261.85L1059.86,2260.95C1060.24,2262.48 1061.02,2263.69 1062.21,2264.57C1063.39,2265.46 1065.02,2265.9 1067.09,2265.9C1069.24,2265.9 1070.83,2265.56 1071.86,2264.88C1072.9,2264.19 1073.41,2263.13 1073.41,2261.68C1073.41,2260.61 1072.96,2259.7 1072.05,2258.96C1071.13,2258.22 1069.81,2257.64 1068.07,2257.21C1064.57,2256.37 1062.1,2255.63 1060.66,2255C1059.22,2254.38 1058.07,2253.67 1057.2,2252.89C1056.34,2252.11 1055.68,2251.19 1055.21,2250.14C1054.75,2249.09 1054.52,2247.92 1054.52,2246.62C1054.52,2243.77 1055.66,2241.51 1057.95,2239.85C1060.23,2238.19 1063.25,2237.36 1066.99,2237.36C1070.64,2237.36 1073.49,2238.08 1075.54,2239.52C1077.59,2240.96 1078.91,2243.2 1079.52,2246.23L1072.53,2246.93C1071.82,2243.95 1069.92,2242.47 1066.85,2242.47C1065.12,2242.47 1063.8,2242.79 1062.89,2243.43C1061.98,2244.07 1061.52,2245 1061.52,2246.2C1061.52,2247 1061.74,2247.66 1062.18,2248.19C1062.62,2248.72 1063.22,2249.17 1063.98,2249.53C1064.73,2249.9 1066.28,2250.38 1068.6,2250.99C1071.66,2251.74 1074.02,2252.57 1075.66,2253.49C1077.3,2254.41 1078.51,2255.52 1079.27,2256.82C1080.04,2258.12 1080.42,2259.6 1080.42,2261.26Z" style="fill:rgb(14,0,118);fill-rule:nonzero;"/>
                    <path d="M1109.86,2248.28C1109.86,2250.46 1109.37,2252.37 1108.37,2254.03C1107.38,2255.68 1105.94,2256.95 1104.07,2257.85C1102.18,2258.74 1099.93,2259.19 1097.31,2259.19L1092.51,2259.19L1092.51,2270.81L1085.3,2270.81L1085.3,2237.88L1097.02,2237.88C1101.2,2237.88 1104.39,2238.76 1106.58,2240.53C1108.77,2242.29 1109.86,2244.88 1109.86,2248.28ZM1102.61,2248.4C1102.61,2246.62 1102.08,2245.36 1101.01,2244.6C1099.95,2243.85 1098.35,2243.47 1096.22,2243.47L1092.51,2243.47L1092.51,2253.65L1096.41,2253.65C1098.56,2253.65 1100.13,2253.2 1101.12,2252.32C1102.12,2251.43 1102.61,2250.12 1102.61,2248.4Z" style="fill:rgb(14,0,118);fill-rule:nonzero;"/>
                    <path d="M1115.82,2237.88L1138.18,2237.88L1138.18,2243.44L1130.59,2243.44L1130.59,2265.24L1138.18,2265.24L1138.18,2270.81L1115.82,2270.81L1115.82,2265.24L1123.41,2265.24L1123.41,2243.44L1115.82,2243.44L1115.82,2237.88Z" style="fill:rgb(14,0,118);fill-rule:nonzero;"/>
                </g>
                <g transform="matrix(1.7491,0,0,1.7491,-1064.67,-924.762)">
                    <path d="M923.303,1618L918.225,1618C917.02,1613.5 916.105,1610.09 915.478,1607.74C914.851,1605.4 914.188,1602.66 913.488,1599.54C913.016,1601.57 912.581,1603.41 912.182,1605.06C911.783,1606.7 910.616,1611.01 908.679,1618L903.601,1618L898.449,1585.06L903.064,1585.06L905.725,1605.45C905.985,1607.58 906.254,1610.39 906.53,1613.89C907.051,1611.65 907.487,1609.79 907.836,1608.33C908.186,1606.86 909.354,1602.51 911.34,1595.27L915.612,1595.27C916.735,1599.38 917.618,1602.62 918.261,1604.98C918.904,1607.34 919.624,1610.31 920.422,1613.89L921.276,1605.45L923.815,1585.06L928.43,1585.06L923.303,1618Z" style="fill:rgb(104,96,170);fill-rule:nonzero;"/>
                    <path d="M941.315,1605.72C941.315,1608.68 941.971,1611 943.281,1612.67C944.591,1614.35 946.385,1615.19 948.664,1615.19C950.341,1615.19 951.809,1614.83 953.071,1614.1C954.332,1613.38 955.175,1612.39 955.598,1611.13L959.455,1612.23C958.739,1614.25 957.425,1615.8 955.512,1616.87C953.6,1617.95 951.317,1618.48 948.664,1618.48C944.823,1618.48 941.869,1617.29 939.802,1614.89C937.735,1612.5 936.701,1609.08 936.701,1604.62C936.701,1600.27 937.714,1596.93 939.741,1594.59C941.767,1592.26 944.693,1591.09 948.518,1591.09C952.343,1591.09 955.24,1592.25 957.209,1594.58C959.178,1596.91 960.163,1600.42 960.163,1605.13L960.163,1605.72L941.315,1605.72ZM948.566,1594.34C946.385,1594.34 944.66,1595.05 943.391,1596.47C942.121,1597.9 941.446,1599.86 941.364,1602.35L955.622,1602.35C955.166,1597.01 952.815,1594.34 948.566,1594.34Z" style="fill:rgb(104,96,170);fill-rule:nonzero;"/>
                    <path d="M995.07,1604.66C995.07,1609.29 994.244,1612.75 992.592,1615.04C990.94,1617.34 988.576,1618.48 985.5,1618.48C981.529,1618.48 978.811,1616.99 977.346,1613.99L977.297,1613.99C977.297,1614.77 977.268,1615.59 977.211,1616.43C977.155,1617.28 977.11,1617.8 977.077,1618L972.829,1618C972.927,1617.12 972.976,1615.3 972.976,1612.55L972.976,1581.77L977.37,1581.77L977.37,1592.09C977.37,1593.15 977.338,1594.43 977.273,1595.92L977.37,1595.92C978.851,1592.67 981.569,1591.04 985.524,1591.04C991.888,1591.04 995.07,1595.58 995.07,1604.66ZM990.529,1604.81C990.529,1601.17 990.029,1598.53 989.028,1596.89C988.027,1595.25 986.46,1594.43 984.328,1594.43C981.903,1594.43 980.137,1595.33 979.03,1597.11C977.924,1598.89 977.37,1601.59 977.37,1605.2C977.37,1608.6 977.907,1611.13 978.982,1612.77C980.056,1614.41 981.822,1615.24 984.279,1615.24C986.477,1615.24 988.068,1614.39 989.052,1612.68C990.037,1610.98 990.529,1608.36 990.529,1604.81Z" style="fill:rgb(104,96,170);fill-rule:nonzero;"/>
                    <path d="M1065.35,1615.29C1065.77,1615.29 1066.25,1615.23 1066.79,1615.11L1066.79,1617.85C1065.68,1618.11 1064.55,1618.24 1063.4,1618.24C1061.77,1618.24 1060.58,1617.81 1059.84,1616.96C1059.1,1616.1 1058.68,1614.76 1058.59,1612.94L1058.44,1612.94C1057.38,1614.91 1056.13,1616.33 1054.69,1617.19C1053.25,1618.05 1051.47,1618.48 1049.36,1618.48C1046.79,1618.48 1044.85,1617.78 1043.55,1616.38C1042.25,1614.98 1041.59,1613.06 1041.59,1610.62C1041.59,1604.94 1045.29,1602.06 1052.68,1601.98L1058.44,1601.88L1058.44,1600.44C1058.44,1598.31 1058.01,1596.78 1057.15,1595.84C1056.28,1594.9 1054.91,1594.43 1053.02,1594.43C1051.1,1594.43 1049.72,1594.78 1048.87,1595.46C1048.02,1596.14 1047.52,1597.2 1047.36,1598.63L1042.77,1598.22C1043.51,1593.47 1046.96,1591.09 1053.09,1591.09C1056.35,1591.09 1058.79,1591.85 1060.43,1593.37C1062.07,1594.89 1062.88,1597.1 1062.88,1599.98L1062.88,1611.35C1062.88,1612.66 1063.05,1613.64 1063.4,1614.3C1063.74,1614.95 1064.39,1615.29 1065.35,1615.29ZM1050.48,1615.14C1052.04,1615.14 1053.43,1614.76 1054.63,1614.02C1055.84,1613.27 1056.77,1612.27 1057.44,1611.01C1058.11,1609.76 1058.44,1608.47 1058.44,1607.13L1058.44,1604.96L1053.8,1605.06C1051.88,1605.09 1050.41,1605.3 1049.41,1605.69C1048.4,1606.08 1047.61,1606.68 1047.05,1607.49C1046.49,1608.29 1046.21,1609.36 1046.21,1610.69C1046.21,1612.03 1046.57,1613.1 1047.29,1613.92C1048.02,1614.73 1049.08,1615.14 1050.48,1615.14Z" style="fill:rgb(104,96,170);fill-rule:nonzero;"/>
                    <path d="M1094.66,1618L1094.66,1601.03C1094.66,1598.81 1094.24,1597.17 1093.38,1596.1C1092.53,1595.02 1091.17,1594.48 1089.29,1594.48C1087.28,1594.48 1085.62,1595.22 1084.33,1596.69C1083.03,1598.17 1082.38,1600.16 1082.38,1602.69L1082.38,1618L1077.99,1618L1077.99,1597.22C1077.99,1594.14 1077.94,1592.26 1077.84,1591.58L1081.99,1591.58C1082.01,1591.66 1082.03,1591.88 1082.04,1592.24C1082.06,1592.6 1082.08,1593.01 1082.1,1593.47C1082.13,1593.93 1082.16,1594.81 1082.19,1596.1L1082.26,1596.1C1083.97,1592.76 1086.79,1591.09 1090.71,1591.09C1093.53,1591.09 1095.62,1591.85 1097.01,1593.37C1098.39,1594.89 1099.08,1597.24 1099.08,1600.39L1099.08,1618L1094.66,1618Z" style="fill:rgb(104,96,170);fill-rule:nonzero;"/>
                    <path d="M1129.52,1613.75C1128.73,1615.46 1127.67,1616.7 1126.35,1617.47C1125.03,1618.24 1123.39,1618.63 1121.42,1618.63C1118.13,1618.63 1115.71,1617.5 1114.17,1615.24C1112.62,1612.97 1111.85,1609.56 1111.85,1605.01C1111.85,1595.79 1115.04,1591.19 1121.42,1591.19C1123.39,1591.19 1125.04,1591.54 1126.36,1592.24C1127.69,1592.94 1128.75,1594.09 1129.55,1595.68L1129.6,1595.68L1129.55,1591.99L1129.55,1581.77L1133.94,1581.77L1133.94,1612.55C1133.94,1615.3 1133.99,1617.12 1134.09,1618L1129.89,1618C1129.83,1617.75 1129.77,1617.16 1129.72,1616.21C1129.67,1615.27 1129.65,1614.45 1129.65,1613.75L1129.52,1613.75ZM1116.39,1604.86C1116.39,1608.47 1116.87,1611.11 1117.84,1612.76C1118.81,1614.41 1120.38,1615.24 1122.57,1615.24C1124.94,1615.24 1126.7,1614.38 1127.84,1612.66C1128.98,1610.94 1129.55,1608.21 1129.55,1604.47C1129.55,1600.97 1129,1598.42 1127.9,1596.83C1126.8,1595.23 1125.04,1594.43 1122.61,1594.43C1120.42,1594.43 1118.83,1595.27 1117.85,1596.95C1116.88,1598.63 1116.39,1601.26 1116.39,1604.86Z" style="fill:rgb(104,96,170);fill-rule:nonzero;"/>
                    <path d="M1201.36,1618L1201.36,1596.8C1201.36,1594.61 1201.39,1592.97 1201.44,1591.9L1201.51,1589.45C1200.47,1592.81 1199.7,1595.18 1199.19,1596.56L1195.19,1607.25L1191.84,1607.25L1187.79,1596.56C1187.5,1595.81 1186.72,1593.44 1185.45,1589.45L1185.54,1596.8L1185.54,1618L1181.64,1618L1181.64,1585.06L1187.42,1585.06L1191.94,1597C1192.28,1597.86 1192.84,1599.74 1193.6,1602.64L1194.24,1600.44L1195.31,1597.02L1199.83,1585.06L1205.32,1585.06L1205.32,1618L1201.36,1618Z" style="fill:rgb(104,96,170);fill-rule:nonzero;"/>
                    <path d="M1240.28,1604.76C1240.28,1609.21 1239.25,1612.6 1237.21,1614.95C1235.17,1617.31 1232.22,1618.48 1228.36,1618.48C1224.59,1618.48 1221.69,1617.3 1219.68,1614.92C1217.67,1612.54 1216.67,1609.16 1216.67,1604.76C1216.67,1600.22 1217.7,1596.81 1219.76,1594.52C1221.81,1592.23 1224.73,1591.09 1228.51,1591.09C1232.48,1591.09 1235.43,1592.22 1237.37,1594.48C1239.31,1596.75 1240.28,1600.17 1240.28,1604.76ZM1235.66,1604.76C1235.66,1601.26 1235.1,1598.65 1233.99,1596.93C1232.87,1595.2 1231.07,1594.34 1228.58,1594.34C1226.06,1594.34 1224.21,1595.22 1223.04,1596.98C1221.87,1598.73 1221.28,1601.33 1221.28,1604.76C1221.28,1608.18 1221.87,1610.78 1223.04,1612.56C1224.21,1614.35 1225.97,1615.24 1228.31,1615.24C1230.9,1615.24 1232.77,1614.37 1233.93,1612.62C1235.08,1610.88 1235.66,1608.26 1235.66,1604.76Z" style="fill:rgb(104,96,170);fill-rule:nonzero;"/>
                    <path d="M1275.11,1604.66C1275.11,1609.29 1274.28,1612.75 1272.63,1615.04C1270.98,1617.34 1268.62,1618.48 1265.54,1618.48C1261.57,1618.48 1258.85,1616.99 1257.38,1613.99L1257.34,1613.99C1257.34,1614.77 1257.31,1615.59 1257.25,1616.43C1257.19,1617.28 1257.15,1617.8 1257.12,1618L1252.87,1618C1252.97,1617.12 1253.02,1615.3 1253.02,1612.55L1253.02,1581.77L1257.41,1581.77L1257.41,1592.09C1257.41,1593.15 1257.38,1594.43 1257.31,1595.92L1257.41,1595.92C1258.89,1592.67 1261.61,1591.04 1265.56,1591.04C1271.93,1591.04 1275.11,1595.58 1275.11,1604.66ZM1270.57,1604.81C1270.57,1601.17 1270.07,1598.53 1269.07,1596.89C1268.07,1595.25 1266.5,1594.43 1264.37,1594.43C1261.94,1594.43 1260.18,1595.33 1259.07,1597.11C1257.96,1598.89 1257.41,1601.59 1257.41,1605.2C1257.41,1608.6 1257.95,1611.13 1259.02,1612.77C1260.1,1614.41 1261.86,1615.24 1264.32,1615.24C1266.52,1615.24 1268.11,1614.39 1269.09,1612.68C1270.08,1610.98 1270.57,1608.36 1270.57,1604.81Z" style="fill:rgb(104,96,170);fill-rule:nonzero;"/>
                    <path d="M1301.69,1614.53L1310.97,1614.53L1310.97,1618L1286.99,1618L1286.99,1614.53L1297.3,1614.53L1297.3,1595.05L1289.51,1595.05L1289.51,1591.58L1301.69,1591.58L1301.69,1614.53ZM1296.81,1586.45L1296.81,1581.77L1301.69,1581.77L1301.69,1586.45L1296.81,1586.45Z" style="fill:rgb(104,96,170);fill-rule:nonzero;"/>
                    <path d="M1338.89,1614.41L1345.75,1614.53L1345.75,1618L1336.72,1617.9C1334.88,1617.57 1333.54,1616.84 1332.69,1615.7C1332.33,1615.21 1332.13,1613.88 1332.08,1611.7L1332.08,1585.23L1325.03,1585.23L1325.03,1581.77L1336.48,1581.77L1336.48,1612.21C1336.49,1612.94 1336.7,1613.49 1337.09,1613.85C1337.43,1614.15 1338.03,1614.34 1338.89,1614.41ZM1332.08,1614.53L1332.08,1611.7L1332.08,1614.53Z" style="fill:rgb(104,96,170);fill-rule:nonzero;"/>
                    <path d="M1361.37,1605.72C1361.37,1608.68 1362.03,1611 1363.34,1612.67C1364.65,1614.35 1366.44,1615.19 1368.72,1615.19C1370.4,1615.19 1371.87,1614.83 1373.13,1614.1C1374.39,1613.38 1375.23,1612.39 1375.66,1611.13L1379.51,1612.23C1378.8,1614.25 1377.48,1615.8 1375.57,1616.87C1373.66,1617.95 1371.38,1618.48 1368.72,1618.48C1364.88,1618.48 1361.93,1617.29 1359.86,1614.89C1357.79,1612.5 1356.76,1609.08 1356.76,1604.62C1356.76,1600.27 1357.77,1596.93 1359.8,1594.59C1361.83,1592.26 1364.75,1591.09 1368.58,1591.09C1372.4,1591.09 1375.3,1592.25 1377.27,1594.58C1379.24,1596.91 1380.22,1600.42 1380.22,1605.13L1380.22,1605.72L1361.37,1605.72ZM1368.62,1594.34C1366.44,1594.34 1364.72,1595.05 1363.45,1596.47C1362.18,1597.9 1361.5,1599.86 1361.42,1602.35L1375.68,1602.35C1375.23,1597.01 1372.87,1594.34 1368.62,1594.34Z" style="fill:rgb(104,96,170);fill-rule:nonzero;"/>
                    <path d="M1450.99,1601.2C1450.99,1606.59 1449.74,1610.73 1447.24,1613.64C1444.74,1616.54 1441.17,1618 1436.51,1618L1427.48,1618L1427.48,1585.06L1435.07,1585.06C1440.42,1585.06 1444.42,1586.4 1447.05,1589.08C1449.67,1591.75 1450.99,1595.79 1450.99,1601.2ZM1446.3,1601.2C1446.3,1596.9 1445.41,1593.77 1443.62,1591.81C1441.83,1589.85 1438.99,1588.87 1435.1,1588.87L1432.14,1588.87L1432.14,1614.19L1436.1,1614.19C1439.55,1614.19 1442.11,1613.1 1443.79,1610.94C1445.46,1608.78 1446.3,1605.53 1446.3,1601.2Z" style="fill:rgb(104,96,170);fill-rule:nonzero;"/>
                    <path d="M1466.39,1605.72C1466.39,1608.68 1467.04,1611 1468.35,1612.67C1469.66,1614.35 1471.46,1615.19 1473.74,1615.19C1475.41,1615.19 1476.88,1614.83 1478.14,1614.1C1479.4,1613.38 1480.25,1612.39 1480.67,1611.13L1484.53,1612.23C1483.81,1614.25 1482.5,1615.8 1480.59,1616.87C1478.67,1617.95 1476.39,1618.48 1473.74,1618.48C1469.9,1618.48 1466.94,1617.29 1464.88,1614.89C1462.81,1612.5 1461.77,1609.08 1461.77,1604.62C1461.77,1600.27 1462.79,1596.93 1464.81,1594.59C1466.84,1592.26 1469.77,1591.09 1473.59,1591.09C1477.42,1591.09 1480.31,1592.25 1482.28,1594.58C1484.25,1596.91 1485.24,1600.42 1485.24,1605.13L1485.24,1605.72L1466.39,1605.72ZM1473.64,1594.34C1471.46,1594.34 1469.73,1595.05 1468.46,1596.47C1467.19,1597.9 1466.52,1599.86 1466.44,1602.35L1480.69,1602.35C1480.24,1597.01 1477.89,1594.34 1473.64,1594.34Z" style="fill:rgb(104,96,170);fill-rule:nonzero;"/>
                    <path d="M1510.99,1618L1505.79,1618L1495.22,1591.58L1500.15,1591.58L1506.69,1608.77L1507.11,1610.06L1508.38,1614.55L1509.23,1611.7L1510.18,1608.82L1516.92,1591.58L1521.83,1591.58L1510.99,1618Z" style="fill:rgb(104,96,170);fill-rule:nonzero;"/>
                    <path d="M1536.4,1605.72C1536.4,1608.68 1537.05,1611 1538.36,1612.67C1539.67,1614.35 1541.47,1615.19 1543.75,1615.19C1545.42,1615.19 1546.89,1614.83 1548.15,1614.1C1549.41,1613.38 1550.26,1612.39 1550.68,1611.13L1554.54,1612.23C1553.82,1614.25 1552.51,1615.8 1550.6,1616.87C1548.68,1617.95 1546.4,1618.48 1543.75,1618.48C1539.91,1618.48 1536.95,1617.29 1534.88,1614.89C1532.82,1612.5 1531.78,1609.08 1531.78,1604.62C1531.78,1600.27 1532.8,1596.93 1534.82,1594.59C1536.85,1592.26 1539.78,1591.09 1543.6,1591.09C1547.43,1591.09 1550.32,1592.25 1552.29,1594.58C1554.26,1596.91 1555.25,1600.42 1555.25,1605.13L1555.25,1605.72L1536.4,1605.72ZM1543.65,1594.34C1541.47,1594.34 1539.74,1595.05 1538.47,1596.47C1537.2,1597.9 1536.53,1599.86 1536.45,1602.35L1550.7,1602.35C1550.25,1597.01 1547.9,1594.34 1543.65,1594.34Z" style="fill:rgb(104,96,170);fill-rule:nonzero;"/>
                    <path d="M1583.93,1614.41L1590.79,1614.53L1590.79,1618L1581.76,1617.9C1579.92,1617.57 1578.57,1616.84 1577.73,1615.7C1577.37,1615.21 1577.16,1613.88 1577.12,1611.7L1577.12,1585.23L1570.06,1585.23L1570.06,1581.77L1581.51,1581.77L1581.51,1612.21C1581.53,1612.94 1581.73,1613.49 1582.12,1613.85C1582.46,1614.15 1583.07,1614.34 1583.93,1614.41ZM1577.12,1614.53L1577.12,1611.7L1577.12,1614.53Z" style="fill:rgb(104,96,170);fill-rule:nonzero;"/>
                    <path d="M1625.33,1604.76C1625.33,1609.21 1624.31,1612.6 1622.27,1614.95C1620.22,1617.31 1617.27,1618.48 1613.41,1618.48C1609.64,1618.48 1606.75,1617.3 1604.74,1614.92C1602.73,1612.54 1601.72,1609.16 1601.72,1604.76C1601.72,1600.22 1602.75,1596.81 1604.81,1594.52C1606.87,1592.23 1609.79,1591.09 1613.56,1591.09C1617.53,1591.09 1620.49,1592.22 1622.42,1594.48C1624.36,1596.75 1625.33,1600.17 1625.33,1604.76ZM1620.72,1604.76C1620.72,1601.26 1620.16,1598.65 1619.04,1596.93C1617.93,1595.2 1616.12,1594.34 1613.63,1594.34C1611.11,1594.34 1609.27,1595.22 1608.09,1596.98C1606.92,1598.73 1606.34,1601.33 1606.34,1604.76C1606.34,1608.18 1606.92,1610.78 1608.09,1612.56C1609.27,1614.35 1611.02,1615.24 1613.37,1615.24C1615.95,1615.24 1617.83,1614.37 1618.98,1612.62C1620.14,1610.88 1620.72,1608.26 1620.72,1604.76Z" style="fill:rgb(104,96,170);fill-rule:nonzero;"/>
                    <path d="M1660.16,1604.66C1660.16,1613.88 1656.97,1618.48 1650.59,1618.48C1646.59,1618.48 1643.89,1616.99 1642.51,1613.99L1642.39,1613.99C1642.45,1614.12 1642.49,1615.47 1642.49,1618.04L1642.49,1628.37L1638.07,1628.37L1638.07,1597.05C1638.07,1594.28 1638.02,1592.46 1637.92,1591.58L1642.19,1591.58C1642.21,1591.64 1642.24,1591.88 1642.27,1592.3C1642.3,1592.71 1642.34,1593.33 1642.38,1594.13C1642.42,1594.94 1642.44,1595.53 1642.44,1595.92L1642.54,1595.92C1643.35,1594.22 1644.39,1592.98 1645.65,1592.2C1646.91,1591.43 1648.56,1591.04 1650.59,1591.04C1653.82,1591.04 1656.22,1592.15 1657.8,1594.37C1659.37,1596.6 1660.16,1600.03 1660.16,1604.66ZM1655.62,1604.66C1655.62,1600.99 1655.13,1598.36 1654.13,1596.79C1653.14,1595.22 1651.58,1594.43 1649.44,1594.43C1646.99,1594.43 1645.21,1595.33 1644.12,1597.11C1643.03,1598.89 1642.49,1601.59 1642.49,1605.2C1642.49,1608.67 1643.03,1611.21 1644.12,1612.82C1645.21,1614.43 1646.97,1615.24 1649.4,1615.24C1651.56,1615.24 1653.14,1614.41 1654.13,1612.77C1655.13,1611.13 1655.62,1608.42 1655.62,1604.66Z" style="fill:rgb(104,96,170);fill-rule:nonzero;"/>
                    <path d="M1681.52,1618L1681.52,1601.25C1681.52,1598.74 1681.32,1596.99 1680.92,1595.99C1680.52,1594.99 1679.8,1594.48 1678.74,1594.48C1677.7,1594.48 1676.85,1595.27 1676.21,1596.83C1675.57,1598.39 1675.25,1600.51 1675.25,1603.18L1675.25,1618L1671.12,1618L1671.12,1597.22C1671.12,1594.14 1671.07,1592.26 1670.97,1591.58L1674.61,1591.58L1674.76,1594.68L1674.76,1595.85L1674.81,1595.85C1675.36,1594.19 1676.06,1592.98 1676.91,1592.23C1677.75,1591.47 1678.81,1591.09 1680.08,1591.09C1681.51,1591.09 1682.58,1591.48 1683.29,1592.26C1684,1593.04 1684.51,1594.25 1684.82,1595.88L1684.87,1595.88C1685.52,1594.15 1686.29,1592.92 1687.2,1592.19C1688.1,1591.46 1689.24,1591.09 1690.63,1591.09C1692.55,1591.09 1693.92,1591.79 1694.75,1593.19C1695.58,1594.59 1696,1596.99 1696,1600.39L1696,1618L1691.9,1618L1691.9,1601.25C1691.9,1598.74 1691.7,1596.99 1691.3,1595.99C1690.9,1594.99 1690.17,1594.48 1689.11,1594.48C1688.04,1594.48 1687.19,1595.17 1686.56,1596.54C1685.93,1597.9 1685.62,1599.95 1685.62,1602.69L1685.62,1618L1681.52,1618Z" style="fill:rgb(104,96,170);fill-rule:nonzero;"/>
                    <path d="M1711.42,1605.72C1711.42,1608.68 1712.08,1611 1713.39,1612.67C1714.7,1614.35 1716.49,1615.19 1718.77,1615.19C1720.45,1615.19 1721.92,1614.83 1723.18,1614.1C1724.44,1613.38 1725.28,1612.39 1725.7,1611.13L1729.56,1612.23C1728.85,1614.25 1727.53,1615.8 1725.62,1616.87C1723.71,1617.95 1721.42,1618.48 1718.77,1618.48C1714.93,1618.48 1711.98,1617.29 1709.91,1614.89C1707.84,1612.5 1706.81,1609.08 1706.81,1604.62C1706.81,1600.27 1707.82,1596.93 1709.85,1594.59C1711.88,1592.26 1714.8,1591.09 1718.62,1591.09C1722.45,1591.09 1725.35,1592.25 1727.32,1594.58C1729.29,1596.91 1730.27,1600.42 1730.27,1605.13L1730.27,1605.72L1711.42,1605.72ZM1718.67,1594.34C1716.49,1594.34 1714.77,1595.05 1713.5,1596.47C1712.23,1597.9 1711.55,1599.86 1711.47,1602.35L1725.73,1602.35C1725.27,1597.01 1722.92,1594.34 1718.67,1594.34Z" style="fill:rgb(104,96,170);fill-rule:nonzero;"/>
                    <path d="M1759.76,1618L1759.76,1601.03C1759.76,1598.81 1759.33,1597.17 1758.48,1596.1C1757.62,1595.02 1756.26,1594.48 1754.39,1594.48C1752.37,1594.48 1750.71,1595.22 1749.42,1596.69C1748.12,1598.17 1747.48,1600.16 1747.48,1602.69L1747.48,1618L1743.08,1618L1743.08,1597.22C1743.08,1594.14 1743.03,1592.26 1742.94,1591.58L1747.09,1591.58C1747.1,1591.66 1747.12,1591.88 1747.14,1592.24C1747.15,1592.6 1747.17,1593.01 1747.2,1593.47C1747.22,1593.93 1747.25,1594.81 1747.28,1596.1L1747.36,1596.1C1749.07,1592.76 1751.88,1591.09 1755.8,1591.09C1758.62,1591.09 1760.72,1591.85 1762.1,1593.37C1763.49,1594.89 1764.18,1597.24 1764.18,1600.39L1764.18,1618L1759.76,1618Z" style="fill:rgb(104,96,170);fill-rule:nonzero;"/>
                    <path d="M1778.21,1595.05L1778.21,1591.58L1782.36,1591.58L1783.78,1584.69L1786.71,1584.69L1786.71,1591.58L1797.25,1591.58L1797.25,1595.05L1786.71,1595.05L1786.71,1610.96C1786.71,1612.25 1787.05,1613.2 1787.74,1613.82C1788.43,1614.44 1789.57,1614.75 1791.15,1614.75C1793.33,1614.75 1795.75,1614.47 1798.4,1613.92L1798.4,1617.26C1795.65,1618.01 1792.92,1618.39 1790.22,1618.39C1787.59,1618.39 1785.61,1617.83 1784.29,1616.71C1782.97,1615.6 1782.31,1613.84 1782.31,1611.43L1782.31,1595.05L1778.21,1595.05Z" style="fill:rgb(104,96,170);fill-rule:nonzero;"/>
                </g>
            </g>
        </g>
    </g>
    <defs>
        <linearGradient id="_Linear1" x1="0" y1="0" x2="1" y2="0" gradientUnits="userSpaceOnUse" gradientTransform="matrix(1,0,0,-1,0,-0.00491347)"><stop offset="0" style="stop-color:rgb(254,147,254);stop-opacity:1"/><stop offset="1" style="stop-color:rgb(194,0,254);stop-opacity:1"/></linearGradient>
        <linearGradient id="_Linear2" x1="0" y1="0" x2="1" y2="0" gradientUnits="userSpaceOnUse" gradientTransform="matrix(1,0,0,-1,0,-2.11936e-05)"><stop offset="0" style="stop-color:rgb(254,147,254);stop-opacity:1"/><stop offset="0.51" style="stop-color:rgb(129,109,254);stop-opacity:1"/><stop offset="1" style="stop-color:rgb(106,45,254);stop-opacity:1"/></linearGradient>
        <linearGradient id="_Linear3" x1="0" y1="0" x2="1" y2="0" gradientUnits="userSpaceOnUse" gradientTransform="matrix(1,0,0,-1,0,-2.11936e-05)"><stop offset="0" style="stop-color:rgb(254,147,254);stop-opacity:1"/><stop offset="0.51" style="stop-color:rgb(129,109,254);stop-opacity:1"/><stop offset="1" style="stop-color:rgb(106,45,254);stop-opacity:1"/></linearGradient>
    </defs>
</svg>
