<?xml version="1.0" encoding="UTF-8" standalone="no"?>
<!DOCTYPE svg PUBLIC "-//W3C//DTD SVG 1.1//EN" "http://www.w3.org/Graphics/SVG/1.1/DTD/svg11.dtd">
<svg width="100%" height="100%" viewBox="0 0 2333 1902" version="1.1" xmlns="http://www.w3.org/2000/svg" xmlns:xlink="http://www.w3.org/1999/xlink" xml:space="preserve" xmlns:serif="http://www.serif.com/" style="fill-rule:evenodd;clip-rule:evenodd;stroke-linejoin:round;stroke-miterlimit:2;">
    <g transform="matrix(1,0,0,1,-2540.23,0)">
        <g id="Prancheta3" transform="matrix(1,0,0,1,-0.340765,0.866966)">
            <rect x="2540.57" y="-0.867" width="2332.47" height="1901.73" style="fill:none;"/>
            <g transform="matrix(1.26114,0,0,1.26114,2508.9,-169.479)">
                <g transform="matrix(-798.757,4.89098e-14,4.89098e-14,798.757,1378.82,507.762)">
                    <path d="M-0,0.059C0,-0.074 0.052,-0.2 0.147,-0.294C0.242,-0.388 0.367,-0.44 0.501,-0.44C0.634,-0.439 0.76,-0.387 0.854,-0.293C0.873,-0.274 0.89,-0.254 0.905,-0.233C0.967,-0.148 1,-0.046 1,0.061C1,0.195 0.948,0.32 0.853,0.415C0.832,0.435 0.799,0.435 0.779,0.414C0.758,0.394 0.758,0.361 0.779,0.34C0.854,0.266 0.895,0.167 0.895,0.061C0.895,-0.044 0.854,-0.144 0.78,-0.218C0.705,-0.293 0.606,-0.334 0.501,-0.335C0.395,-0.335 0.296,-0.294 0.221,-0.219C0.146,-0.145 0.105,-0.046 0.105,0.06C0.105,0.165 0.146,0.264 0.22,0.339C0.241,0.36 0.241,0.393 0.22,0.413C0.2,0.434 0.166,0.434 0.146,0.413C0.052,0.319 -0,0.194 -0,0.06L-0,0.059Z" style="fill:url(#_Linear1);fill-rule:nonzero;"/>
                </g>
                <g transform="matrix(9.13101e-16,14.9121,-14.9121,9.13101e-16,1165.5,418.857)">
                    <path d="M0,25.107C-0.646,24.634 -1.262,24.112 -1.84,23.537C-7.894,17.503 -7.911,7.671 -1.88,1.616C1.04,-1.317 4.93,-2.937 9.07,-2.945C13.208,-2.953 17.103,-1.341 20.037,1.574C21.155,2.689 21.158,4.5 20.044,5.617C18.928,6.735 17.122,6.729 16,5.626C14.153,3.779 11.692,2.768 9.081,2.772C6.468,2.778 4.015,3.799 2.171,5.653C-1.637,9.473 -1.625,15.677 2.196,19.483C4.044,21.331 6.503,22.343 9.115,22.336C11.728,22.332 14.183,21.31 16.025,19.46C17.14,18.34 18.944,18.343 20.068,19.452C21.187,20.566 21.192,22.378 20.077,23.498C17.154,26.426 13.264,28.045 9.125,28.054C5.802,28.06 2.637,27.027 0,25.107" style="fill:rgb(137,100,254);fill-rule:nonzero;"/>
                </g>
                <g transform="matrix(663.153,767.409,767.409,-663.153,1012.06,746.396)">
                    <path d="M0.322,0.383L0.322,0.252L0.366,0.252L0.367,0.167L0.226,0.026L0.003,0.026C-0.006,0.051 -0.03,0.068 -0.058,0.068C-0.094,0.068 -0.124,0.039 -0.124,0.003C-0.124,-0.033 -0.094,-0.062 -0.058,-0.062C-0.03,-0.062 -0.006,-0.044 0.003,-0.02L0.329,-0.02L0.33,-0.207C0.33,-0.213 0.332,-0.219 0.336,-0.223L0.399,-0.285L0.399,-0.383L0.53,-0.383L0.53,-0.252L0.43,-0.252L0.375,-0.198L0.375,-0.02L0.455,-0.02C0.461,-0.02 0.467,-0.017 0.471,-0.013L0.6,0.116L0.696,0.116L0.696,0.072L0.827,0.072L0.827,0.203L0.696,0.203L0.696,0.161L0.591,0.161C0.585,0.161 0.579,0.159 0.575,0.154L0.446,0.026L0.29,0.026L0.405,0.142C0.41,0.146 0.412,0.152 0.412,0.158L0.411,0.252L0.453,0.252L0.453,0.383L0.322,0.383Z" style="fill:url(#_Linear2);fill-rule:nonzero;"/>
                </g>
                <g transform="matrix(-767.409,663.153,663.153,767.409,929.707,735.212)">
                    <path d="M0.322,0.383L0.322,0.252L0.366,0.252L0.367,0.167L0.226,0.026L0.003,0.026C-0.006,0.051 -0.03,0.068 -0.058,0.068C-0.094,0.068 -0.124,0.039 -0.124,0.003C-0.124,-0.033 -0.094,-0.062 -0.058,-0.062C-0.03,-0.062 -0.006,-0.044 0.003,-0.02L0.329,-0.02L0.33,-0.207C0.33,-0.213 0.332,-0.219 0.336,-0.223L0.399,-0.285L0.399,-0.383L0.53,-0.383L0.53,-0.252L0.43,-0.252L0.375,-0.198L0.375,-0.02L0.455,-0.02C0.461,-0.02 0.467,-0.017 0.471,-0.013L0.6,0.116L0.696,0.116L0.696,0.072L0.827,0.072L0.827,0.203L0.696,0.203L0.696,0.161L0.591,0.161C0.585,0.161 0.579,0.159 0.575,0.154L0.446,0.026L0.29,0.026L0.405,0.142C0.41,0.146 0.412,0.152 0.412,0.158L0.411,0.252L0.453,0.252L0.453,0.383L0.322,0.383Z" style="fill:url(#_Linear3);fill-rule:nonzero;"/>
                </g>
            </g>
        </g>
    </g>
    <defs>
        <linearGradient id="_Linear1" x1="0" y1="0" x2="1" y2="0" gradientUnits="userSpaceOnUse" gradientTransform="matrix(1,0,0,-1,0,-0.00491347)"><stop offset="0" style="stop-color:rgb(254,147,254);stop-opacity:1"/><stop offset="1" style="stop-color:rgb(194,0,254);stop-opacity:1"/></linearGradient>
        <linearGradient id="_Linear2" x1="0" y1="0" x2="1" y2="0" gradientUnits="userSpaceOnUse" gradientTransform="matrix(1,0,0,-1,0,-2.11936e-05)"><stop offset="0" style="stop-color:rgb(254,147,254);stop-opacity:1"/><stop offset="0.51" style="stop-color:rgb(129,109,254);stop-opacity:1"/><stop offset="1" style="stop-color:rgb(106,45,254);stop-opacity:1"/></linearGradient>
        <linearGradient id="_Linear3" x1="0" y1="0" x2="1" y2="0" gradientUnits="userSpaceOnUse" gradientTransform="matrix(1,0,0,-1,0,-2.11936e-05)"><stop offset="0" style="stop-color:rgb(254,147,254);stop-opacity:1"/><stop offset="0.51" style="stop-color:rgb(129,109,254);stop-opacity:1"/><stop offset="1" style="stop-color:rgb(106,45,254);stop-opacity:1"/></linearGradient>
    </defs>
</svg>
